<?xml version="1.0" ?><svg viewBox="0 0 64 64" xmlns="http://www.w3.org/2000/svg"><title/><g id="Setting"><path d="M4,12H8.059a8.9963,8.9963,0,0,0,17.882,0H60a1,1,0,0,0,0-2H25.941A8.9963,8.9963,0,0,0,8.059,10H4a1,1,0,0,0,0,2ZM17,4a7,7,0,1,1-7,7A7.0085,7.0085,0,0,1,17,4Z"/><path d="M60,31H55.941a8.9963,8.9963,0,0,0-17.882,0H4a1,1,0,0,0,0,2H38.059a8.9963,8.9963,0,0,0,17.882,0H60a1,1,0,0,0,0-2ZM47,39a7,7,0,1,1,7-7A7.0085,7.0085,0,0,1,47,39Z"/><path d="M60,52H33.941a8.9963,8.9963,0,0,0-17.882,0H4a1,1,0,0,0,0,2H16.059a8.9963,8.9963,0,0,0,17.882,0H60a1,1,0,0,0,0-2ZM25,60a7,7,0,1,1,7-7A7.0085,7.0085,0,0,1,25,60Z"/></g></svg>